<?xml version="1.0"?>
<svg width="100" height="100" xmlns="http://www.w3.org/2000/svg" xmlns:svg="http://www.w3.org/2000/svg" preserveAspectRatio="xMidYMid meet" version="1.0">
 <g class="layer">
  <title>Layer 1</title>
  <g fill="#000000" id="svg_1" transform="matrix(0.1 0 0 -0.1 0 0)">
   <path d="m131,-94c-49,-27 -50,-37 -51,-404c0,-372 2,-386 55,-410c18,-8 104,-12 280,-12l255,0l25,50l25,50l-50,0c-27,0 -50,2 -50,5c0,3 16,37 35,75c19,38 35,72 35,75c0,3 -20,5 -45,5c-43,0 -45,-1 -45,-30l0,-30l-100,0l-100,0l0,30c0,28 -2,30 -40,30c-38,0 -40,2 -40,30c0,28 -2,30 -40,30l-40,0l0,160l0,160l260,0l260,0l0,-110l0,-110l80,0l80,0l0,170c0,184 -6,212 -51,236c-39,20 -702,20 -738,0z" fill="#ffffff" id="svg_2"/>
   <path d="m300,-410c0,-63 2,-70 20,-70c18,0 20,7 20,70c0,63 -2,70 -20,70c-18,0 -20,-7 -20,-70z" fill="#ffffff" id="svg_3"/>
   <path d="m360,-410c0,-63 2,-70 20,-70c18,0 20,7 20,70c0,63 -2,70 -20,70c-18,0 -20,-7 -20,-70z" fill="#ffffff" id="svg_4"/>
   <path d="m420,-410c0,-63 2,-70 20,-70c18,0 20,7 20,70c0,63 -2,70 -20,70c-18,0 -20,-7 -20,-70z" fill="#ffffff" id="svg_5"/>
   <path d="m480,-410c0,-63 2,-70 20,-70c18,0 20,7 20,70c0,63 -2,70 -20,70c-18,0 -20,-7 -20,-70z" fill="#ffffff" id="svg_6"/>
   <path d="m540,-410c0,-63 2,-70 20,-70c18,0 20,7 20,70c0,63 -2,70 -20,70c-18,0 -20,-7 -20,-70z" fill="#ffffff" id="svg_7"/>
   <path d="m600,-410c0,-63 2,-70 20,-70c18,0 20,7 20,70c0,63 -2,70 -20,70c-18,0 -20,-7 -20,-70z" fill="#ffffff" id="svg_8"/>
   <path d="m660,-410c0,-63 2,-70 20,-70c18,0 20,7 20,70c0,63 -2,70 -20,70c-18,0 -20,-7 -20,-70z" fill="#ffffff" id="svg_9"/>
   <path d="m740,-660l-60,-120l50,0l49,0l-35,-77c-60,-132 -60,-131 -12,-87c24,21 91,88 150,149l106,110l-63,5l-63,5l49,68l49,67l-80,0l-80,0l-60,-120z" fill="#ffffff" id="svg_10"/>
  </g>
 </g>
</svg>